<?xml version="1.0" encoding="utf-8"?>
<!-- Generator: Adobe Illustrator 22.0.0, SVG Export Plug-In . SVG Version: 6.00 Build 0)  -->
<svg version="1.1" id="Layer_1" xmlns="http://www.w3.org/2000/svg" xmlns:xlink="http://www.w3.org/1999/xlink" x="0px" y="0px"
	 viewBox="0 0 128 160" style="enable-background:new 0 0 128 160;" xml:space="preserve">
<style type="text/css">
	.st0{fill:#FFFFFF;}
</style>
<title>Artboard 26</title>
<path class="st0" d="M97.6,124.8c-0.6,0.9-0.3,2.2,0.6,2.8c0.9,0.6,2.1,0.4,2.7-0.5c5.7-8.1,6.2-20.8,6.2-33.2V62
	c0-5.5-4.5-10-10-10c-2.2,0-4.3,0.7-6,2l0,0c0-5.5-4.5-10-10-10c-2.4,0-4.8,0.9-6.6,2.5c-1.9-5.2-7.7-7.8-12.8-5.9
	C60.6,41,59.8,41.4,59,42V26c0-5.5-4.5-10-10-10s-10,4.5-10,10v32.7c-2.1-2.6-4.9-4.6-8.1-5.7c-1.8-0.6-3.8-0.3-5.4,0.8
	c-1.6,1.1-2.5,3-2.5,4.9V94c-0.1,13.2,6.2,25.7,16.8,33.6c0.9,0.7,2.1,0.5,2.8-0.4c0.7-0.9,0.5-2.1-0.4-2.8C32.6,117.3,27,106,27,94
	V58.7c0-0.7,0.3-1.3,0.9-1.7c0.5-0.4,1.1-0.5,1.7-0.3C35.2,58.7,39,64,39,70v16c0,1.1,0.9,2,2,2s2-0.9,2-2V26c0-3.3,2.7-6,6-6
	s6,2.7,6,6v46c0,1.1,0.9,2,2,2s2-0.9,2-2V50c0-3.3,2.7-6,6-6c3.3,0,6,2.7,6,6v22c0,1.1,0.9,2,2,2s2-0.9,2-2V54c0-3.3,2.7-6,6-6
	s6,2.7,6,6v22c0,1.1,0.9,2,2,2s2-0.9,2-2V62c0-3.3,2.7-6,6-6s6,2.7,6,6v32C103,105.7,102.6,117.7,97.6,124.8z"/>
<path class="st0" d="M94,42c1.1,0,2-0.9,2-2V7.8l4.6,4.6c0.8,0.8,2,0.8,2.8,0c0.8-0.8,0.8-2,0-2.8L94,0.2l-9.4,9.4
	c-0.8,0.8-0.8,2,0,2.8c0.8,0.8,2,0.8,2.8,0L92,7.8V40C92,41.1,92.9,42,94,42z"/>
</svg>
