<?xml version="1.0" encoding="UTF-8"?>
<svg width="95px" height="26px" viewBox="0 0 95 26" version="1.1" xmlns="http://www.w3.org/2000/svg" xmlns:xlink="http://www.w3.org/1999/xlink">
    <!-- Generator: Sketch 46.2 (44496) - http://www.bohemiancoding.com/sketch -->
    <title>logo_tand_black</title>
    <desc>Created with Sketch.</desc>
    <defs></defs>
    <g id="Symbols" stroke="none" stroke-width="1" fill="none" fill-rule="evenodd">
        <g id="logo_tand_black" fill="#000000">
            <path d="M79.0789136,20.5854396 L85.4536645,20.5854396 C85.6519037,20.5854396 85.8320033,20.5261516 85.9939635,20.4069513 L88.396804,18.0965891 C88.5205415,17.9767648 88.5833821,17.8157509 88.5833821,17.6122993 L88.5833821,8.07191378 C88.5833821,7.88219198 88.5205415,7.72617076 88.396804,7.60634646 L85.9939635,5.29598425 C85.8443123,5.17678404 85.6642126,5.11063105 85.4536645,5.09939752 L79.0789136,5.09939752 L79.0789136,20.5854396 Z M73.4880498,25.6848371 L73.4880498,1.32555628 L74.852402,0 L87.5960731,0 C88.5846777,0 89.4184485,0.334509493 90.0980332,1.00352848 L93.1357575,3.88617652 C93.8153422,4.54396198 94.1606412,5.3558964 94.173598,6.32260387 L94.173598,19.3797076 C94.173598,20.3358057 93.828299,21.1414992 93.1364053,21.7980365 L90.0993289,24.7000312 C89.420392,25.3571926 88.5866213,25.6848371 87.5986645,25.6848371 L73.4880498,25.6848371 Z M68.2522674,19.553016 C70.0655731,19.553016 71.5348754,20.9690646 71.5348754,22.7152541 C71.5348754,24.4620676 70.0655731,25.8787403 68.2522674,25.8787403 C66.4389618,25.8787403 64.9696595,24.4620676 64.9696595,22.7152541 C64.9696595,20.9690646 66.4389618,19.553016 68.2522674,19.553016 Z M60.7441196,22.8833201 L61.3297674,23.5941528 L63.6749502,23.5941528 L63.6749502,25.6230527 L52.796412,25.6230527 L52.796412,23.5941528 L54.7068937,23.5941528 L55.3152159,22.8833201 L55.3152159,12.6339742 C55.3152159,11.043806 54.9971262,9.87614316 54.3596512,9.13036173 C53.7228239,8.38395622 52.7096013,8.01137755 51.3199834,8.01137755 C50.7848671,8.01137755 50.1655316,8.07378603 49.4639203,8.19922709 C48.7616611,8.32466815 47.9764784,8.50627685 47.1077243,8.74280502 L47.1077243,22.8833201 L47.7153987,23.5941528 L49.6699336,23.5941528 L49.6699336,25.6230527 L30.8961628,25.6230527 L30.3124585,23.1753919 C28.8068771,24.1658146 27.4386379,24.8847603 26.2083887,25.330981 C24.9781395,25.7765776 23.7984219,26 22.6692359,26 C20.9608804,26 19.5641362,25.4807614 18.4783555,24.4416601 C18.1382392,24.1158878 17.8577243,23.7582871 17.6245017,23.3744749 C16.8114618,23.7857469 15.3583555,24.4379156 13.3792027,24.992727 L13.3798505,24.9889825 C12.6827741,25.1899378 12.0031894,25.3590648 11.3456312,25.4894986 C10.1950664,25.7185377 9.14167774,25.8321212 8.18611296,25.8321212 C7.40481728,25.8321212 6.71292359,25.7553587 6.11302326,25.6024579 C5.51182724,25.4489331 4.97282392,25.2117808 4.49471761,24.8910012 C3.90129568,24.514678 3.48538206,24.044118 3.2463289,23.4793212 C3.00792359,22.9139003 2.88807309,21.8723026 2.88807309,20.3520319 L2.88807309,7.8853124 L0,7.8853124 L0,6.25395454 L3.27872093,4.45471784 L5.60252492,0 L8.40378738,0 L8.40378738,5.31221046 L14.982608,5.31221046 L14.982608,7.8853124 L8.40378738,7.8853124 L8.40378738,18.5683973 C8.40378738,20.1741677 8.67134551,21.2706848 9.20646179,21.8567005 C9.74222591,22.4439644 10.7049169,22.7366602 12.0945349,22.7366602 C12.6445515,22.7366602 13.1550498,22.7123209 13.6253821,22.6636423 C13.9946512,22.6255731 14.3490199,22.5675332 14.6962625,22.4988838 C15.2462791,22.3796836 16.0625581,22.1512686 16.9824917,21.735004 C16.8976246,21.3243561 16.8503322,20.8924894 16.8503322,20.4356592 C16.8503322,18.4279782 17.6458804,16.8802477 19.2382724,15.7918437 C20.8306645,14.7040638 24.5434385,13.5264156 30.3778904,12.257027 L30.3778904,10.9807734 C30.3778904,9.43304289 30.0371262,8.30344927 29.3568937,7.5926166 C28.6766611,6.88115984 27.6051329,6.52605554 26.1429568,6.52605554 C25.8248671,6.52605554 25.4918771,6.54727443 25.1446346,6.58846403 C24.8181229,6.62778138 23.9610299,6.73075538 23.1868605,6.99973596 C23.911794,7.57951081 24.3834219,8.44386837 24.3834219,9.42243345 C24.3834219,11.169247 22.9134718,12.5852956 21.1001661,12.5852956 C19.2868605,12.5852956 17.8169103,11.169247 17.8169103,9.42243345 C17.8169103,9.08667579 17.8862292,8.7683925 17.9872924,8.46446317 C18.2794684,7.44158806 19.1657143,6.52917597 20.6680565,5.73097141 C22.5331894,4.74054871 24.8252492,4.24564941 27.543588,4.24564941 C30.5936213,4.24564941 32.7405648,4.81107031 33.9837708,5.94003985 C35.2276246,7.06963347 35.8495515,9.03550083 35.8495515,11.838266 L35.8495515,22.9251338 L36.4358472,23.5941528 L40.962309,23.5941528 L41.5926578,22.8833201 L41.5926578,8.09438084 L38.5523422,8.09438084 L38.5523422,6.3793956 L44.9575415,4.37171455 L47.1077243,4.37171455 L47.1077243,6.90237872 C48.8011794,5.99620748 50.2633555,5.33405343 51.4936047,4.91529248 C52.7238538,4.49715561 53.7953821,4.28808718 54.7068937,4.28808718 C56.7339867,4.28808718 58.2466944,4.87347879 59.2456645,6.04426202 C60.2439867,7.21566933 60.7441196,9.00180024 60.7441196,11.3995343 L60.7441196,22.8833201 Z M30.3124585,21.4185929 L30.3124585,14.4325868 C27.3881063,15.0604162 25.390814,15.7431651 24.3199336,16.4827056 C23.2477575,17.2216221 22.7126412,18.2257747 22.7126412,19.4945393 C22.7126412,20.484962 23.0093522,21.2694366 23.6027741,21.8473392 C24.196196,22.42649 24.9995183,22.7154413 26.0133887,22.7154413 C26.5776578,22.7154413 27.2183721,22.6074746 27.9348837,22.3915412 C28.6513953,22.1756079 29.4437043,21.8510837 30.3124585,21.4185929 Z" id="tan.D-Logo"></path>
        </g>
    </g>
</svg>