<?xml version="1.0" encoding="UTF-8"?>
<svg width="218px" height="218px" viewBox="0 0 218 218" version="1.1" xmlns="http://www.w3.org/2000/svg" xmlns:xlink="http://www.w3.org/1999/xlink">
    <!-- Generator: Sketch 46.2 (44496) - http://www.bohemiancoding.com/sketch -->
    <title>logo_shpere_circle</title>
    <desc>Created with Sketch.</desc>
    <defs></defs>
    <g id="Symbols" stroke="none" stroke-width="1" fill="none" fill-rule="evenodd">
        <g id="logo_shpere_circle">
            <g>
                <polygon id="Fill-1" fill="#0094D5" points="109 0 102 3.99930495 102 12.000695 109 16 116 12.000695 116 3.99930495"></polygon>
                <polygon id="Fill-2" fill="#0094D5" points="102 206.000695 102 214.000695 109 218 116 214.000695 116 206.000695 109 202"></polygon>
                <polygon id="Fill-3" fill="#0094D5" points="50 22 53.999305 29 62.000695 29 66 22 62.000695 15 53.999305 15"></polygon>
                <polygon id="Fill-4" fill="#0094D5" points="151 195.999298 154.999305 203 162.999305 203 167 195.999298 162.999305 189 154.999305 189"></polygon>
                <polygon id="Fill-5" fill="#0094D5" points="15 61.999305 22 66 29 61.999305 29 53.999305 22 50 15 53.999305"></polygon>
                <polygon id="Fill-6" fill="#0094D5" points="189 162.999305 195.999298 167 203 162.999305 203 154.999305 195.999298 151 189 154.999305"></polygon>
                <polygon id="Fill-7" fill="#0094D5" points="3.99930495 102 0 109 3.99930495 116 11.999305 116 16 109 11.999305 102"></polygon>
                <polygon id="Fill-8" fill="#0094D5" points="205.999305 102 202 109 205.999305 116 213.999305 116 218 109 213.999305 102"></polygon>
                <polygon id="Fill-9" fill="#0094D5" points="22 167 29 162.999305 29 154.999305 22 151 15 154.999305 15 162.999305"></polygon>
                <polygon id="Fill-10" fill="#0094D5" points="196 66 203 61.999305 203 53.999305 196 50 189 53.999305 189 61.999305"></polygon>
                <polygon id="Fill-11" fill="#0094D5" points="62.000695 203 66 196 62.000695 189 54.000695 189 50 196 54.000695 203"></polygon>
                <polygon id="Fill-12" fill="#0094D5" points="162.999305 29 167 22 162.999305 15 154.999305 15 151 22 154.999305 29"></polygon>
                <polygon id="Fill-13" fill="#0094D5" points="76 23.6868231 78.8131769 34.1868231 89.3131769 37 97 29.3145307 94.1868231 18.8131769 83.6868231 16"></polygon>
                <polygon id="Fill-14" fill="#0094D5" points="120 187.687681 122.812996 198.187004 133.312319 201 141 193.313672 138.185651 182.812996 127.686328 180"></polygon>
                <polygon id="Fill-15" fill="#0094D5" points="38 51.3136724 45.6868231 59 56.1868231 56.1870044 59 45.6863276 51.3131769 38 40.8131769 40.8143493"></polygon>
                <polygon id="Fill-16" fill="#0094D5" points="159 172.313672 166.686823 180 177.186823 177.187004 180 166.686328 172.313177 159 161.813177 161.812996"></polygon>
                <polygon id="Fill-17" fill="#0094D5" points="18.8129956 94.1868231 29.3123187 97 37 89.3131769 34.1856507 78.8131769 23.6863276 76 16 83.6868231"></polygon>
                <polygon id="Fill-18" fill="#0094D5" points="182.812996 138.186823 193.312319 141 201 133.313177 198.185651 122.814531 187.686328 120 180 127.686823"></polygon>
                <polygon id="Fill-19" fill="#0094D5" points="23.6868231 141 34.1868231 138.186823 37 127.686823 29.3131769 120 18.8131769 122.813177 16 133.313177"></polygon>
                <polygon id="Fill-20" fill="#0094D5" points="187.686328 97 198.187004 94.1868231 201 83.6868231 193.312319 76 182.812996 78.8131769 180 89.3131769"></polygon>
                <polygon id="Fill-21" fill="#0094D5" points="51.3131769 180 59 172.313672 56.1868231 161.812996 45.6854693 159 38 166.686328 40.8131769 177.187004"></polygon>
                <polygon id="Fill-22" fill="#0094D5" points="172.313177 59 180 51.3136724 177.186823 40.8143493 166.686823 38 159 45.6876813 161.813177 56.1870044"></polygon>
                <polygon id="Fill-23" fill="#0094D5" points="94.1868231 198.187004 97 187.687681 89.3131769 180 78.8131769 182.814349 76 193.313672 83.6868231 201"></polygon>
                <polygon id="Fill-24" fill="#0094D5" points="138.185651 34.1868231 141 23.6868231 133.312319 16 122.812996 18.8131769 120 29.3131769 127.686328 37"></polygon>
                <polygon id="Fill-25" fill="#034784" points="96 35.75 96 51.25 109.5 59 123 51.25 123 35.75 109.5 28"></polygon>
                <polygon id="Fill-26" fill="#034784" points="96 167.749663 96 183.250337 109.5 191 123 183.250337 123 167.749663 109.5 160"></polygon>
                <polygon id="Fill-27" fill="#034784" points="60 53.5 67.7496634 67 83.2489901 67 91 53.5 83.2489901 40 67.7496634 40"></polygon>
                <polygon id="Fill-28" fill="#034784" points="126 165.5 133.749663 179 149.24899 179 157 165.5 149.24899 152 133.749663 152"></polygon>
                <polygon id="Fill-29" fill="#034784" points="39 84.25 52.5 92 66 84.25 66 68.75 52.5 61 39 68.75"></polygon>
                <polygon id="Fill-30" fill="#034784" points="152 150.24899 165.5 158 179 150.24899 179 134.749663 165.5 127 152 134.749663"></polygon>
                <polygon id="Fill-31" fill="#034784" points="35.75 124 51.25 124 59 110.5 51.25 97 35.75 97 28 110.5"></polygon>
                <polygon id="Fill-32" fill="#034784" points="166.749663 124 182.250337 124 190 110.5 182.250337 97 166.749663 97 159 110.5"></polygon>
                <polygon id="Fill-33" fill="#034784" points="52.5 158 66 150.24899 66 134.749663 52.5 127 39 134.749663 39 150.24899"></polygon>
                <polygon id="Fill-34" fill="#034784" points="165.5 92 179 84.2503366 179 68.7510099 165.5 61 152 68.7510099 152 84.2503366"></polygon>
                <polygon id="Fill-35" fill="#034784" points="83.25 179 91 165.5 83.25 152 67.75 152 60 165.5 67.75 179"></polygon>
                <polygon id="Fill-36" fill="#034784" points="149.25 67 157 53.5 149.25 40 133.75 40 126 53.5 133.75 67"></polygon>
                <g id="Group-49" transform="translate(68.000000, 98.000000)" fill="#0094D5">
                    <path d="M0.545573333,20.5580476 L0.545573333,18.3209048 L9.30044,18.3209048 C9.54644,18.3209048 9.74050667,18.2518571 9.87990667,18.111 L11.12494,16.8488095 C11.2821067,16.69 11.36274,16.5049524 11.36274,16.2936667 L11.36274,14.5384762 C11.36274,14.3078571 11.2383733,14.1324762 10.9910067,14.0123333 L1.96007333,9.34333333 C1.01707333,8.85171429 0.545573333,8.04247619 0.545573333,6.91009524 L0.545573333,5.15490476 C0.545573333,4.6232381 0.622106667,4.17304762 0.775173333,3.80295238 C0.92824,3.43285714 1.18244,3.06690476 1.53914,2.70647619 L3.18460667,1.04104762 C3.56864,0.650238095 3.93490667,0.382333333 4.28067333,0.237333333 C4.62780667,0.0923333333 5.06240667,0.0191428571 5.58584,0.0191428571 L12.8947733,0.0191428571 L13.89654,1.01066667 L13.89654,3.24780952 L6.02727333,3.24780952 C5.77990667,3.24780952 5.58584,3.3237619 5.44780667,3.47152381 L4.23010667,4.76271429 C4.07157333,4.92428571 3.98820667,5.09966667 3.97864,5.28885714 L3.97864,6.41571429 C3.97864,6.61595238 4.08250667,6.77061905 4.29160667,6.88109524 L12.5995733,11.1289048 C14.07284,11.8898095 14.8040067,13.005619 14.79444,14.4777143 L14.79444,16.2936667 C14.79444,17.3362857 14.3694067,18.2753333 13.5207067,19.1177143 L12.3043733,20.3771429 C11.53494,21.1587619 10.5277067,21.5495714 9.28267333,21.5495714 L1.53230667,21.5495714 L0.545573333,20.5580476 Z" id="Fill-37"></path>
                    <path d="M20.2053467,18.591019 L24.6470133,18.591019 C24.8069133,18.591019 24.9408467,18.5316381 25.05018,18.4114952 L25.71848,17.7652095 C25.81688,17.665781 25.86608,17.5304476 25.86608,17.3592095 L25.86608,10.3177333 C25.86608,10.1782571 25.81688,10.0581143 25.71848,9.95868571 L25.05018,9.28201905 C24.9504133,9.18397143 24.8178467,9.13149524 24.6470133,9.13149524 L23.7409133,9.13149524 C23.6220133,9.13149524 23.50858,9.16187619 23.3992467,9.2226381 L20.2053467,10.7251143 L20.2053467,18.591019 Z M16.98138,27.0894 L16.98138,6.17487619 L19.86368,6.17487619 L20.0864467,7.43568571 L22.00388,6.55049524 C22.5095467,6.30054286 23.0439133,6.17487619 23.6083467,6.17487619 L25.16908,6.17487619 C25.93988,6.17487619 26.5890467,6.44968571 27.1152133,7.00068571 L28.2741467,8.17173333 C28.81808,8.70201905 29.0914133,9.35797143 29.0914133,10.1382095 L29.0914133,17.5856857 C29.0914133,18.3452095 28.81808,19.0011619 28.2741467,19.5521619 L27.1152133,20.7232095 C26.5890467,21.2728286 25.93988,21.549019 25.16908,21.549019 L20.2053467,21.549019 L20.2053467,26.1572571 L19.2992467,27.0894 L16.98138,27.0894 Z" id="Fill-39"></path>
                    <path d="M31.2782167,21.5491571 L31.2782167,0.942585714 L32.1843167,0.0270142857 L34.5021833,0.0270142857 L34.5021833,7.40682381 L36.29935,6.55063333 C36.8050167,6.30068095 37.3393833,6.17501429 37.9051833,6.17501429 L39.46455,6.17501429 C40.2367167,6.17501429 40.8858833,6.44982381 41.4106833,7.00082381 L42.5545833,8.17187143 C43.0998833,8.72149048 43.3773167,9.37882381 43.3868833,10.1383476 L43.3868833,21.5491571 L40.1629167,21.5491571 L40.1629167,10.3634429 C40.1629167,10.2239667 40.0986833,10.0886333 39.96885,9.95744286 L39.3306167,9.3125381 C39.2322167,9.21310952 39.1023833,9.16201429 38.94385,9.16201429 L37.9940167,9.16201429 C37.8751167,9.16201429 37.7657833,9.18272857 37.6673833,9.22277619 L34.5021833,10.7252524 L34.5021833,21.5491571 L31.2782167,21.5491571 Z" id="Fill-41"></path>
                    <path d="M59.7178667,21.5491571 L59.7178667,6.17501429 L62.4662333,6.17501429 L62.7928667,8.02134762 L64.6515333,6.61139524 C65.0164333,6.32001429 65.5863333,6.17501429 66.3585,6.17501429 L67.8153667,6.17501429 L67.8153667,9.13163333 L66.4774,9.13163333 C66.3393667,9.13163333 66.215,9.1730619 66.1070333,9.25177619 L62.9418333,11.549681 L62.9418333,21.5491571 L59.7178667,21.5491571 Z" id="Fill-43"></path>
                    <path d="M72.3816733,12.2257952 L77.8948067,12.2257952 L77.8948067,10.3187 C77.8838733,10.1792238 77.8292067,10.059081 77.7308067,9.95827143 L77.0625067,9.28298571 C76.96274,9.18355714 76.8342733,9.1324619 76.67574,9.1324619 L73.5993733,9.1324619 C73.44084,9.1324619 73.3082733,9.18355714 73.19894,9.28298571 L72.53064,9.95827143 C72.43224,10.059081 72.3816733,10.1792238 72.3816733,10.3187 L72.3816733,12.2257952 Z M80.19354,21.5486048 L73.08004,21.5486048 C72.3065067,21.5486048 71.64914,21.2737952 71.10384,20.7227952 L69.9449067,19.5531286 C69.4201067,19.0214619 69.1577067,18.3668905 69.1577067,17.5852714 L69.1577067,10.1391762 C69.1577067,9.35755714 69.4201067,8.70298571 69.9449067,8.17131905 L71.10384,7.00165238 C71.64914,6.45065238 72.3065067,6.17584286 73.08004,6.17584286 L77.1950733,6.17584286 C77.9686067,6.17584286 78.62734,6.45065238 79.17264,7.00165238 L80.3302067,8.17131905 C80.8563733,8.70298571 81.1187733,9.35755714 81.1187733,10.1391762 L81.1187733,14.2378429 L80.19764,15.1837952 L72.3816733,15.1837952 L72.3816733,17.3601762 C72.3816733,17.5203667 72.43224,17.6557 72.53064,17.7647952 L73.19894,18.4414619 C73.29734,18.5408905 73.4312733,18.5906048 73.5993733,18.5906048 L80.19354,18.5906048 L80.19354,21.5486048 Z" id="Fill-45"></path>
                    <path d="M48.7946467,12.2257952 L54.30778,12.2257952 L54.30778,10.3187 C54.2968467,10.1792238 54.24218,10.059081 54.14378,9.95827143 L53.47548,9.28298571 C53.3757133,9.18355714 53.2472467,9.1324619 53.0887133,9.1324619 L50.0123467,9.1324619 C49.8538133,9.1324619 49.7212467,9.18355714 49.6119133,9.28298571 L48.9436133,9.95827143 C48.8452133,10.059081 48.7946467,10.1792238 48.7946467,10.3187 L48.7946467,12.2257952 Z M56.60788,21.5486048 L49.4930133,21.5486048 C48.71948,21.5486048 48.0621133,21.2737952 47.5168133,20.7227952 L46.35788,19.5531286 C45.83308,19.0214619 45.57068,18.3668905 45.57068,17.5852714 L45.57068,10.1391762 C45.57068,9.35755714 45.83308,8.70298571 46.35788,8.17131905 L47.5168133,7.00165238 C48.0621133,6.45065238 48.71948,6.17584286 49.4930133,6.17584286 L53.6080467,6.17584286 C54.38158,6.17584286 55.0403133,6.45065238 55.5856133,7.00165238 L56.74318,8.17131905 C57.2693467,8.70298571 57.5317467,9.35755714 57.5317467,10.1391762 L57.5317467,14.2378429 L56.6106133,15.1837952 L48.7946467,15.1837952 L48.7946467,17.3601762 C48.7946467,17.5203667 48.8452133,17.6557 48.9436133,17.7647952 L49.6119133,18.4414619 C49.71168,18.5408905 49.8456133,18.5906048 50.0123467,18.5906048 L56.60788,18.5906048 L56.60788,21.5486048 Z" id="Fill-47"></path>
                </g>
            </g>
        </g>
    </g>
</svg>