<?xml version="1.0" encoding="UTF-8"?>
<svg width="211px" height="60px" viewBox="0 0 211 60" version="1.1" xmlns="http://www.w3.org/2000/svg" xmlns:xlink="http://www.w3.org/1999/xlink">
    <!-- Generator: Sketch 46.2 (44496) - http://www.bohemiancoding.com/sketch -->
    <title>logo_tand_large</title>
    <desc>Created with Sketch.</desc>
    <defs></defs>
    <g id="Symbols" stroke="none" stroke-width="1" fill="none" fill-rule="evenodd">
        <g id="logo_tand_large">
            <path d="M152.623717,45.1223446 C156.678578,45.1223446 159.964188,48.3901491 159.964188,52.4198171 C159.964188,56.4509253 156.678578,59.7201699 152.623717,59.7201699 C148.568856,59.7201699 145.283245,56.4509253 145.283245,52.4198171 C145.283245,48.3901491 148.568856,45.1223446 152.623717,45.1223446 Z M135.834217,52.8076618 L137.143826,54.4480449 L142.388054,54.4480449 L142.388054,59.1301217 L118.061787,59.1301217 L118.061787,54.4480449 L122.33395,54.4480449 L123.694262,52.8076618 L123.694262,29.1553251 C123.694262,25.4857061 122.982959,22.7910996 121.557456,21.0700655 C120.133402,19.3475913 117.867663,18.4877943 114.76024,18.4877943 C113.563629,18.4877943 112.178689,18.6318139 110.609766,18.9212933 C109.039395,19.2107727 107.283593,19.6298697 105.34091,20.1757039 L105.34091,52.8076618 L106.699774,54.4480449 L111.070447,54.4480449 L111.070447,59.1301217 L69.0890922,59.1301217 L67.7838298,53.4816735 C64.4170929,55.7672643 61.3574765,57.42637 58.6064294,58.45611 C55.8553824,59.4844099 53.2173325,60 50.6922798,60 C46.8721054,60 43.7487471,58.801757 41.3207561,56.4038309 C40.560198,55.6520487 39.9329187,54.8268164 39.4113932,53.941096 C37.5932973,54.8901851 34.3439037,56.3951897 29.9181802,57.6755239 L29.9196289,57.6668827 C28.3608471,58.1306258 26.8411797,58.5209188 25.3707675,58.8219198 C22.7979083,59.3504717 20.4423514,59.6125873 18.3055455,59.6125873 C16.558435,59.6125873 15.0112427,59.4354432 13.6697632,59.0825952 C12.3253863,58.728307 11.1200829,58.1810326 10.0509556,57.4407719 C8.72396288,56.5723338 7.79390904,55.4864262 7.25934539,54.1830489 C6.72623043,52.8782314 6.45822426,50.4745445 6.45822426,46.9662274 L6.45822426,18.1968748 L0,18.1968748 L0,14.4322028 L7.33177949,10.2801181 L12.5282018,0 L18.7923026,0 L18.7923026,12.2589472 L33.5036681,12.2589472 L33.5036681,18.1968748 L18.7923026,18.1968748 L18.7923026,42.8501476 C18.7923026,46.5557716 19.3906083,49.0861957 20.5872196,50.4385396 C21.7852796,51.793764 23.938021,52.4692158 27.0454439,52.4692158 C28.2753749,52.4692158 29.4169363,52.4130482 30.4686794,52.3007129 C31.2944281,52.2128609 32.0868571,52.0789227 32.8633507,51.9205012 C34.0932817,51.6454238 35.918621,51.1183121 37.9757494,50.1577014 C37.785972,49.2100526 37.6802183,48.213437 37.6802183,47.1592137 C37.6802183,42.5261036 39.4591997,38.9544178 43.02006,36.4427162 C46.5809203,33.9324548 54.8833168,31.2148052 67.9301467,28.2854468 L67.9301467,25.3402463 C67.9301467,21.7685605 67.1681399,19.161806 65.6470239,17.5214229 C64.1259078,15.8795996 61.7297878,15.0601282 58.4601126,15.0601282 C57.7488097,15.0601282 57.0041872,15.1090948 56.2276936,15.2041478 C55.4975579,15.2948801 53.5809517,15.5325124 51.8497767,16.1532368 C53.4708518,17.4911788 54.5254923,19.4858501 54.5254923,21.7440772 C54.5254923,25.7751854 51.2384329,29.0429898 47.183572,29.0429898 C43.1287112,29.0429898 39.8416518,25.7751854 39.8416518,21.7440772 C39.8416518,20.9692518 39.9966607,20.2347519 40.2226551,19.5333765 C40.8760107,17.1728955 42.8578077,15.0673292 46.2173012,13.2253186 C50.3880566,10.9397278 55.5134934,9.79765248 61.592163,9.79765248 C68.4125578,9.79765248 73.2134898,11.1024699 75.9935106,13.7077843 C78.77498,16.3145388 80.1657147,20.8511558 80.1657147,27.3190754 L80.1657147,52.904155 L81.4767718,54.4480449 L91.5987128,54.4480449 L93.0082804,52.8076618 L93.0082804,18.6793404 L86.2096159,18.6793404 L86.2096159,14.7216821 L100.532735,10.088572 L105.34091,10.088572 L105.34091,15.9285663 C109.127765,13.8374019 112.39744,12.3093541 115.148487,11.3429826 C117.899534,10.3780514 120.295654,9.8955858 122.33395,9.8955858 C126.866876,9.8955858 130.249548,11.2464895 132.483416,13.948297 C134.715835,16.6515446 135.834217,20.7733852 135.834217,26.3066177 L135.834217,52.8076618 Z M67.7838298,49.4275221 L67.7838298,33.3059696 C61.2444793,34.7548067 56.7781928,36.3303809 54.3835215,38.037013 C51.9859528,39.7422049 50.7893415,42.0594801 50.7893415,44.9873983 C50.7893415,47.2729891 51.4528378,49.0833153 52.7798305,50.4169367 C54.1068232,51.7534385 55.9031889,52.4202492 58.1703762,52.4202492 C59.4321782,52.4202492 60.8649246,52.1710953 62.4671669,51.6727875 C64.0694092,51.1744797 65.8411472,50.4255779 67.7838298,49.4275221 Z" fill="#FFFFFF"></path>
            <path d="M164.33182,59.2727011 L164.33182,3.05897602 L167.382744,-1.77635684e-15 L195.879767,-1.77635684e-15 C198.090456,-1.77635684e-15 199.95491,0.771944985 201.474577,2.31583495 L208.267447,8.96809966 C209.787114,10.4860661 210.559262,12.3597609 210.588235,14.5906243 L210.588235,44.7224022 C210.588235,46.9287823 209.816088,48.7880752 208.268895,50.3031612 L201.477474,57.000072 C199.959256,58.5165983 198.094802,59.2727011 195.885562,59.2727011 L164.33182,59.2727011 Z M176.833945,47.5048607 L191.088976,47.5048607 C191.532273,47.5048607 191.935006,47.3680421 192.297177,47.0929646 L197.670338,41.7613595 C197.947036,41.4848419 198.087559,41.1132714 198.087559,40.6437676 L198.087559,18.6274933 C198.087559,18.1896738 197.947036,17.8296248 197.670338,17.5531072 L192.297177,12.2215021 C191.962531,11.9464247 191.559798,11.793764 191.088976,11.7678404 L176.833945,11.7678404 L176.833945,47.5048607 Z" id="Combined-Shape" fill="#0094D5"></path>
        </g>
    </g>
</svg>