<?xml version="1.0" encoding="UTF-8"?>
<svg width="36px" height="36px" viewBox="0 0 36 36" version="1.1" xmlns="http://www.w3.org/2000/svg" xmlns:xlink="http://www.w3.org/1999/xlink">
    <!-- Generator: Sketch 46.2 (44496) - http://www.bohemiancoding.com/sketch -->
    <title>logo_linkedin</title>
    <desc>Created with Sketch.</desc>
    <defs></defs>
    <g id="Symbols" stroke="none" stroke-width="1" fill="none" fill-rule="evenodd">
        <g id="logo_linkedin" fill="#FFFFFF">
            <path d="M33.3359,0 C34.8039,0 35.9989,1.162 35.9989,2.596 L35.9989,33.402 C35.9989,34.836 34.8039,36 33.3359,36 L2.6549,36 C1.1899,36 -0.0001,34.836 -0.0001,33.402 L-0.0001,2.596 C-0.0001,1.162 1.1899,0 2.6549,0 L33.3359,0 Z M8.0078,4.9561 C6.2928,4.9561 4.9098,6.3431 4.9098,8.0521 C4.9098,9.7621 6.2928,11.1491 8.0078,11.1491 C9.7158,11.1491 11.1028,9.7621 11.1028,8.0521 C11.1028,6.3431 9.7158,4.9561 8.0078,4.9561 Z M5.3338,30.6761 L10.6788,30.6761 L10.6788,13.4961 L5.3338,13.4961 L5.3338,30.6761 Z M14.0283,13.4961 L14.0283,30.6761 L19.3613,30.6761 L19.3613,22.1791 C19.3613,19.9371 19.7853,17.7661 22.5633,17.7661 C25.3033,17.7661 25.3383,20.3291 25.3383,22.3211 L25.3383,30.6761 L30.6763,30.6761 L30.6763,21.2541 C30.6763,16.6271 29.6773,13.0701 24.2713,13.0701 C21.6743,13.0701 19.9313,14.4941 19.2193,15.8451 L19.1463,15.8451 L19.1463,13.4961 L14.0283,13.4961 Z"></path>
        </g>
    </g>
</svg>